<?xml version="1.0" encoding="utf-8"?>
<!-- Generator: Adobe Illustrator 28.0.0, SVG Export Plug-In . SVG Version: 6.00 Build 0)  -->
<svg version="1.1" id="Layer_1" xmlns="https://www.w3.org/2000/svg" xmlns:xlink="https://www.w3.org/1999/xlink" x="0px" y="0px"
	 viewBox="0 0 200 200" enable-background="new 0 0 200 200" xml:space="preserve">
<path fill="#010101" d="M198.2,76.9l-43.7-21L143.7,8.5L100,29.6L56.3,8.5L45.5,55.9l-43.7,21L32,114.8l-10.8,47.3h48.5L100,200
	l30.3-37.9h48.5L168,114.8L198.2,76.9z M191.3,78.4l-53.8,67.4l-9.9-0.2l50.5-63.2L158.4,73l-2.7-11.6L191.3,78.4z M157.1,145.8
	h-13.9l10.8-13.6L157.1,145.8z M78,145.6l-27.4-34.2l9.8-42.6l39.7-19l39.7,19.1l9.8,42.5L122,145.6H78z M46,132.3l10.8,13.6H42.9
	L46,132.3z M159.7,78.5l11.5,5.6l-8,10L159.7,78.5z M140.6,14.9l19.1,83.6l-6.7,8.5l-18.2-78.9l-18.9,9.1L105.1,32L140.6,14.9z
	 M134.3,46.1L121,39.6l10.7-5.2L134.3,46.1z M59.4,14.9l76.3,36.7l2.8,11.8L65.2,28.1l-4.7,20.5l-10,4.8L59.4,14.9z M79,39.6
	l-13.4,6.4l2.6-11.6L79,39.6z M8.7,78.4l75.4-36.3l10.8,5.3L21.8,82.5l13.6,17.1l-2.2,9.7L8.7,78.4z M28.8,84l11.5-5.5L36.7,94
	L28.8,84z M45.4,76l9.8-4.7l-17.9,79h23l5.9,7.4H26.8L45.4,76z M100,192.9l-52.8-66.2l2.1-9.8l50.7,63.5l14.7-18.4h9.9L100,192.9z
	 M91,162.1h18l-9,11.3L91,162.1z M173.2,157.7l-85.8,0l-6.1-7.6l81.3,0.2l-5.1-22.4l6.9-8.6L173.2,157.7z"/>
</svg>
